# xmcd
#
# Track frame offsets: 
#        150
#        18874
#        39424
#        61549
#        76366
#        94939
#        109004
#        121404
#        137538
#        147363
#        163261
#
# Disc length: 2349 seconds
#
# Revision: 1
# Processed by: cddbd v1.5.2PL0 Copyright (c) Steve Scherf et al.
# Submitted via: ExactAudioCopy v1.0b3
#
DISCID=88092b0b
DTITLE=Verschiedene - Visions - All Areas Vol. 146
DYEAR=2012
DGENRE=Alternative
TTITLE0=Mando Diao - Strövtag I Hembygen
TTITLE1=Mogwai - Mexican Grand Prix - Reworked by RM Hubbert
TTITLE2=Kong - The Gates Of Exception
TTITLE3=Bison B.C. - Clozapine Dream
TTITLE4=Parkway Drive - Dark Days
TTITLE5=Goodtime Boys - Callous
TTITLE6=Bad Brains - Into The Future
TTITLE7=The Bottrops - Menschenmaterial
TTITLE8=Black Sheriff - Night Terrors
TTITLE9=Dunderbeist - Father Serpent
TTITLE10=Jim Jones Revue - Never Let You Go 
EXTD=
EXTT0=
EXTT1=
EXTT2=
EXTT3=
EXTT4=
EXTT5=
EXTT6=
EXTT7=
EXTT8=
EXTT9=
EXTT10=
PLAYORDER=
